Coordinates
version=1
nRows=11
nColumns=40
inDegrees=yes

Units are S.I. units (second, meters, Newtons, ...)
Angles are in degrees.

endheader
time	pelvis_tilt	pelvis_list	pelvis_rotation	pelvis_tx	pelvis_ty	pelvis_tz	hip_flexion_r	hip_adduction_r	hip_rotation_r	knee_angle_r	knee_angle_r_beta	ankle_angle_r	subtalar_angle_r	mtp_angle_r	hip_flexion_l	hip_adduction_l	hip_rotation_l	knee_angle_l	knee_angle_l_beta	ankle_angle_l	subtalar_angle_l	mtp_angle_l	lumbar_extension	lumbar_bending	lumbar_rotation	arm_flex_r	arm_add_r	arm_rot_r	elbow_flex_r	pro_sup_r	wrist_flex_r	wrist_dev_r	arm_flex_l	arm_add_l	arm_rot_l	elbow_flex_l	pro_sup_l	wrist_flex_l	wrist_dev_l
     53.59000000	     -7.76268725	     -3.42773434	      9.46625122	      0.87001399	      0.91570409	      0.53926513	      5.02654932	      2.82883541	    -16.90646643	     16.25214994	     16.25214994	     18.57554192	     -9.52332074	     -0.00360928	     31.81041627	     -4.67442394	      2.64351246	     16.41460076	     16.41460076	      5.49536542	     -1.27378424	      2.27585512	     -8.10877710	      3.20038009	      2.11243257	     49.94204048	    -17.07738095	     -7.95560024	     79.78864628	     44.78281925	      0.00000000	      0.00000000	    -13.82692870	     -7.57555221	     13.40940528	     30.62881408	     43.35096402	      0.00000000	      0.00000000
     53.60785714	     -7.80891611	     -3.51799493	      9.44540573	      0.87117483	      0.91434279	      0.53651934	      4.45787586	      2.84751341	    -16.86509415	     16.00014884	     16.00014884	     18.90743127	     -9.35491604	     -0.05540514	     31.93106108	     -4.57138969	      2.51532438	     17.00849235	     17.00849235	      4.98839411	     -1.66483491	      1.95468504	     -7.95677618	      3.13777590	      2.14534955	     51.32901994	    -16.69334220	     -7.90340575	     80.86848000	     44.75584913	      0.00000000	      0.00000000	    -13.56717898	     -7.59977514	     13.46346339	     30.62122397	     43.36372583	      0.00000000	      0.00000000
     53.62571429	     -7.80546832	     -3.60774841	      9.41722169	      0.87272228	      0.91304178	      0.53361174	      3.81653776	      2.82026005	    -17.03206960	     15.78176079	     15.78176079	     19.28685210	     -8.80637849	     -0.10554149	     31.88985855	     -4.44901871	      2.70553226	     17.59249665	     17.59249665	      3.39018982	     -2.95078156	     -0.87914761	     -7.92446952	      3.07592738	      2.35502154	     51.72348826	    -16.54987616	     -7.99235289	     83.90689879	     44.69894088	      0.00000000	      0.00000000	    -13.02975414	     -7.67709942	     13.56550248	     30.48981769	     43.47411212	      0.00000000	      0.00000000
     53.64357143	     -7.75050468	     -3.72146884	      9.33775795	      0.87436603	      0.91188088	      0.53070306	      3.20553945	      2.83055344	    -16.97204019	     15.70447336	     15.70447336	     19.54509147	     -8.64043538	     -0.16154466	     32.07681132	     -4.41686790	      2.85988033	     18.92825383	     18.92825383	      2.98287858	     -3.93899728	     -1.24001987	     -7.86013342	      3.03672017	      2.36532395	     52.64792353	    -16.12837110	     -7.91507701	     84.72792769	     44.67937747	      0.00000000	      0.00000000	    -12.48943257	     -7.76880465	     13.59225551	     30.49307259	     43.49705187	      0.00000000	      0.00000000
     53.66142857	     -7.68443223	     -3.82369787	      9.22870674	      0.87617034	      0.91095671	      0.52770181	      2.58830803	      2.79837316	    -16.95630692	     15.65740860	     15.65740860	     19.72735074	     -8.35366470	     -0.22816521	     32.22494801	     -4.35330380	      3.20929054	     20.31916052	     20.31916052	      2.60971634	     -5.20492287	     -1.53008836	     -7.83410027	      2.99822435	      2.33642096	     53.28503176	    -15.66647000	     -7.79989324	     85.74190301	     44.65155389	      0.00000000	      0.00000000	    -11.82616602	     -7.88144626	     13.59817406	     30.49821765	     43.52542647	      0.00000000	      0.00000000
     53.67928571	     -7.63755527	     -3.93075244	      9.11249689	      0.87810472	      0.91026605	      0.52448506	      1.97915699	      2.73001544	    -17.05439581	     15.60889854	     15.60889854	     19.83893971	     -7.91434464	     -0.33241235	     32.31427643	     -4.21064993	      3.86650965	     21.62777583	     21.62777583	      2.31319480	     -6.83401117	     -1.60356710	     -7.78948946	      2.99295302	      2.40840831	     53.61418004	    -15.31223795	     -7.69579530	     86.94347516	     44.62011671	      0.00000000	      0.00000000	    -11.00987957	     -8.00882082	     13.58446230	     30.48701238	     43.56674849	      0.00000000	      0.00000000
     53.69714286	     -7.56623141	     -3.89879329	      8.92015995	      0.88017435	      0.91003973	      0.52107867	      1.33736664	      2.44853168	    -17.25393059	     15.61163915	     15.61163915	     19.85361955	     -7.18158352	     -0.59890753	     32.18317978	     -3.87854549	      4.67789824	     22.70044963	     22.70044963	      2.18792266	     -8.81258103	     -1.06367639	     -7.81981954	      2.83485978	      2.80460213	     53.46549272	    -15.39457705	     -7.72877281	     88.47663990	     44.59625273	      0.00000000	      0.00000000	     -9.90931904	     -8.16289334	     13.57423166	     30.34158366	     43.64906988	      0.00000000	      0.00000000
     53.71500000	     -7.51958043	     -3.89088864	      8.64469915	      0.88231437	      0.91004568	      0.51782352	      0.74817842	      2.23557061	    -17.10232401	     15.61251794	     15.61251794	     19.75983524	     -6.93517388	     -0.59581783	     32.06801139	     -3.76563017	      4.79725223	     23.73313075	     23.73313075	      2.33098929	     -9.52115728	     -1.10681019	     -7.77025400	      2.70948775	      2.98236056	     53.53337524	    -15.01141909	     -7.56634884	     88.60736766	     44.58933092	      0.00000000	      0.00000000	     -8.92536313	     -8.42324892	     13.51402996	     30.59212164	     43.67834508	      0.00000000	      0.00000000
     53.73285714	     -7.43948400	     -3.99445034	      8.42237541	      0.88444569	      0.91028629	      0.51412707	      0.04126497	      2.03899498	    -17.56018630	     15.45764640	     15.45764640	     19.53029785	     -5.71292971	     -1.06244119	     31.96902486	     -3.47218890	      5.80817330	     24.88133040	     24.88133040	      3.03476422	    -11.42159354	      0.73865563	     -7.80235142	      2.79925621	      3.32287944	     53.38905938	    -15.18376658	     -7.56215311	     89.22776031	     44.59507384	      0.00000000	      0.00000000	     -7.94221337	     -8.57436507	     13.49509536	     30.79331756	     43.75706862	      0.00000000	      0.00000000
     53.75071429	     -7.40022423	     -4.10199476	      8.06155015	      0.88659472	      0.91064515	      0.51074218	     -0.52923861	      1.89803053	    -17.45399542	     15.42074228	     15.42074228	     19.25411228	     -5.25027748	     -1.08627343	     31.82555419	     -3.44536057	      5.98425886	     25.81514431	     25.81514431	      3.52451911	    -12.16483524	      0.88552452	     -7.77110636	      2.86713742	      3.56483400	     53.25376550	    -14.95661984	     -7.44006873	     89.06388642	     44.60058986	      0.00000000	      0.00000000	     -7.00640936	     -8.81373006	     13.42244055	     31.13886738	     43.79175382	      0.00000000	      0.00000000
     53.76857143	     -7.41857800	     -4.13255010	      7.75233697	      0.88864005	      0.91130387	      0.50707736	     -1.14996393	      1.57542400	    -18.00477321	     15.19709602	     15.19709602	     18.83679315	     -3.81681395	     -1.64465236	     31.60358057	     -3.19549439	      6.44076909	     26.53829346	     26.53829346	      4.55497213	    -13.16598362	      2.96006097	     -7.66329655	      2.89023541	      3.92511998	     53.04730883	    -15.04458142	     -7.33882333	     88.20582860	     44.64770366	      0.00000000	      0.00000000	     -6.05148232	     -9.14363709	     13.30010953	     31.98762145	     43.87446149	      0.00000000	      0.00000000
